# xmcd
#
# Track frame offsets:
#	150
#	12230
#	24152
#	35722
#	47317
#	59572
#	74385
#	85035
#	97422
#	108675
#	121610
#	136037
#
# Disc length: 1961 seconds
#
# Revision: 1
# Processed by: cddbd v1.4PL0 Copyright (c) Steve Scherf et al.
# Submitted via: audiograbber 1.82.00
#
DISCID=9907a70c
DTITLE=Roy Acuff - Wabash Cannonball
DYEAR=1900
DGENRE=Country
TTITLE0=Wabash Cannonball
TTITLE1=Pins And Needles
TTITLE2=Blue Eyes Crying In The Rain
TTITLE3=Once More
TTITLE4=The Great Speckled Bird
TTITLE5=The Precious Jewel
TTITLE6=Wreck Of The Old '97
TTITLE7=That Silve Haired Daddy
TTITLE8=They'll Never Take Her Love From Me
TTITLE9=Blue Moon Of Kentucky
TTITLE10=The Letter Edged In Black
TTITLE11=The Wreck On The Highway
EXTD=
EXTT0=
EXTT1=
EXTT2=
EXTT3=
EXTT4=
EXTT5=
EXTT6=
EXTT7=
EXTT8=
EXTT9=
EXTT10=
EXTT11=
PLAYORDER=
